{
	"asset":{
		"generator":"Khronos glTF Blender I/O v4.5.47",
		"version":"2.0"
	},
	"extensionsUsed":[
		"KHR_materials_clearcoat",
		"KHR_materials_specular",
		"KHR_materials_anisotropy",
		"KHR_materials_ior"
	],
	"scene":0,
	"scenes":[
		{
			"name":"Scene",
			"nodes":[
				6
			]
		}
	],
	"nodes":[
		{
			"mesh":0,
			"name":"Cylinder.002",
			"scale":[
				1.0172878503799438,
				1.0172878503799438,
				1.0172878503799438
			],
			"translation":[
				-14.441803932189941,
				0,
				0.001712411642074585
			]
		},
		{
			"children":[
				0
			],
			"name":"Cap",
			"translation":[
				14.441800117492676,
				0,
				-0.002876780927181244
			]
		},
		{
			"mesh":1,
			"name":"Cylinder.003",
			"rotation":[
				-1,
				0,
				0,
				7.549790126404332e-08
			],
			"translation":[
				-3.814697265625e-06,
				0,
				0
			]
		},
		{
			"children":[
				2
			],
			"name":"Marker"
		},
		{
			"mesh":2,
			"name":"Sphere",
			"scale":[
				1.6174380779266357,
				1.6174380779266357,
				1.6174380779266357
			]
		},
		{
			"children":[
				4
			],
			"name":"Vial",
			"translation":[
				-2.86102294921875e-06,
				0,
				0
			]
		},
		{
			"children":[
				1,
				3,
				5
			],
			"name":"RootNode",
			"translation":[
				8.145401954650879,
				0.6363840103149414,
				0.07374024391174316
			]
		}
	],
	"materials":[
		{
			"doubleSided":true,
			"name":"Material.001"
		},
		{
			"doubleSided":true,
			"name":"Material.002",
			"pbrMetallicRoughness":{
				"baseColorFactor":[
					0.5175853371620178,
					0.5175853371620178,
					0.5175853371620178,
					1
				],
				"roughnessFactor":0.18809521198272705
			}
		},
		{
			"doubleSided":true,
			"extensions":{
				"KHR_materials_clearcoat":{
					"clearcoatFactor":0.5954545140266418,
					"clearcoatRoughnessFactor":0.11363636702299118
				},
				"KHR_materials_specular":{
					"specularColorFactor":[
						1.7142856121063232,
						1.7142856121063232,
						1.7142856121063232
					]
				},
				"KHR_materials_anisotropy":{
					"anisotropyStrength":0.0952381044626236
				},
				"KHR_materials_ior":{
					"ior":1.4900000095367432
				}
			},
			"name":"Material",
			"pbrMetallicRoughness":{
				"baseColorTexture":{
					"index":0
				},
				"metallicFactor":0,
				"roughnessFactor":0.7528139352798462
			}
		},
		{
			"doubleSided":true,
			"name":"Material.004",
			"pbrMetallicRoughness":{
				"baseColorFactor":[
					0.800000011920929,
					0.800000011920929,
					0.800000011920929,
					1
				],
				"metallicFactor":0,
				"roughnessFactor":0.7222222089767456
			}
		},
		{
			"doubleSided":true,
			"extensions":{
				"KHR_materials_clearcoat":{
					"clearcoatFactor":0.9318181872367859,
					"clearcoatRoughnessFactor":0.1599999964237213
				}
			},
			"name":"Material.003",
			"pbrMetallicRoughness":{
				"baseColorFactor":[
					0.43965473771095276,
					0.045186251401901245,
					0.015208534896373749,
					1
				],
				"metallicFactor":0.39159095287323,
				"roughnessFactor":0.4347727298736572
			}
		},
		{
			"doubleSided":true,
			"extensions":{
				"KHR_materials_clearcoat":{
					"clearcoatFactor":0.23181818425655365,
					"clearcoatRoughnessFactor":0.06181818246841431
				}
			},
			"name":"Material.005",
			"pbrMetallicRoughness":{
				"baseColorFactor":[
					0.4396544396877289,
					0.2961386442184448,
					0.04666517302393913,
					1
				],
				"metallicFactor":0,
				"roughnessFactor":0.3863636255264282
			}
		},
		{
			"doubleSided":true,
			"name":"Material.006",
			"pbrMetallicRoughness":{
				"baseColorTexture":{
					"index":1
				},
				"metallicFactor":0,
				"roughnessFactor":0.8681818246841431
			}
		}
	],
	"meshes":[
		{
			"name":"Cylinder.001",
			"primitives":[
				{
					"attributes":{
						"POSITION":0,
						"NORMAL":1,
						"TEXCOORD_0":2
					},
					"indices":3,
					"material":0
				}
			]
		},
		{
			"name":"Cylinder.004",
			"primitives":[
				{
					"attributes":{
						"POSITION":4,
						"NORMAL":5,
						"TEXCOORD_0":6
					},
					"indices":7,
					"material":1
				},
				{
					"attributes":{
						"POSITION":8,
						"NORMAL":9,
						"TEXCOORD_0":10
					},
					"indices":11,
					"material":2
				},
				{
					"attributes":{
						"POSITION":12,
						"NORMAL":13,
						"TEXCOORD_0":14
					},
					"indices":15,
					"material":3
				}
			]
		},
		{
			"name":"Sphere",
			"primitives":[
				{
					"attributes":{
						"POSITION":16,
						"NORMAL":17,
						"TEXCOORD_0":18
					},
					"indices":19,
					"material":4
				},
				{
					"attributes":{
						"POSITION":20,
						"NORMAL":21,
						"TEXCOORD_0":22
					},
					"indices":23,
					"material":5
				},
				{
					"attributes":{
						"POSITION":24,
						"NORMAL":25,
						"TEXCOORD_0":26
					},
					"indices":27,
					"material":6
				}
			]
		}
	],
	"textures":[
		{
			"sampler":0,
			"source":0
		},
		{
			"sampler":0,
			"source":1
		}
	],
	"images":[
		{
			"mimeType":"image/png",
			"name":"Untitled - Copy.png",
			"uri":"textures/Untitled%20-%20Copy.png.png"
		},
		{
			"mimeType":"image/png",
			"name":"bloodylabel80",
			"uri":"textures/bloodylabel80.png"
		}
	],
	"accessors":[
		{
			"bufferView":0,
			"componentType":5126,
			"count":1452,
			"max":[
				12.351885795593262,
				1.2452062368392944,
				1.5069580078125
			],
			"min":[
				7.442062854766846,
				-1.273190975189209,
				-1.8988995552062988
			],
			"type":"VEC3"
		},
		{
			"bufferView":1,
			"componentType":5126,
			"count":1452,
			"type":"VEC3"
		},
		{
			"bufferView":2,
			"componentType":5126,
			"count":1452,
			"type":"VEC2"
		},
		{
			"bufferView":3,
			"componentType":5123,
			"count":7176,
			"type":"SCALAR"
		},
		{
			"bufferView":4,
			"componentType":5126,
			"count":736,
			"max":[
				11.918845176696777,
				0.08547164499759674,
				0.09126550704240799
			],
			"min":[
				11.360508918762207,
				-0.08547092974185944,
				-0.09127029031515121
			],
			"type":"VEC3"
		},
		{
			"bufferView":5,
			"componentType":5126,
			"count":736,
			"type":"VEC3"
		},
		{
			"bufferView":6,
			"componentType":5126,
			"count":736,
			"type":"VEC2"
		},
		{
			"bufferView":7,
			"componentType":5123,
			"count":3930,
			"type":"SCALAR"
		},
		{
			"bufferView":8,
			"componentType":5126,
			"count":3644,
			"max":[
				11.360511779785156,
				1.9079811573028564,
				2.2867507934570312
			],
			"min":[
				-11.150167465209961,
				-1.9079807996749878,
				-2.2867510318756104
			],
			"type":"VEC3"
		},
		{
			"bufferView":9,
			"componentType":5126,
			"count":3644,
			"type":"VEC3"
		},
		{
			"bufferView":10,
			"componentType":5126,
			"count":3644,
			"type":"VEC2"
		},
		{
			"bufferView":11,
			"componentType":5123,
			"count":10698,
			"type":"SCALAR"
		},
		{
			"bufferView":12,
			"componentType":5126,
			"count":290,
			"max":[
				11.360511779785156,
				1.2053741216659546,
				1.4027767181396484
			],
			"min":[
				8.136285781860352,
				-1.2053735256195068,
				-1.4027782678604126
			],
			"type":"VEC3"
		},
		{
			"bufferView":13,
			"componentType":5126,
			"count":290,
			"type":"VEC3"
		},
		{
			"bufferView":14,
			"componentType":5126,
			"count":290,
			"type":"VEC2"
		},
		{
			"bufferView":15,
			"componentType":5123,
			"count":1344,
			"type":"SCALAR"
		},
		{
			"bufferView":16,
			"componentType":5126,
			"count":2214,
			"max":[
				1.4020639657974243,
				2.7832319736480713,
				1.4020628929138184
			],
			"min":[
				-1.4087014198303223,
				-3.675734519958496,
				-1.4020639657974243
			],
			"type":"VEC3"
		},
		{
			"bufferView":17,
			"componentType":5126,
			"count":2214,
			"type":"VEC3"
		},
		{
			"bufferView":18,
			"componentType":5126,
			"count":2214,
			"type":"VEC2"
		},
		{
			"bufferView":19,
			"componentType":5123,
			"count":10836,
			"type":"SCALAR"
		},
		{
			"bufferView":20,
			"componentType":5126,
			"count":1064,
			"max":[
				1.6060588359832764,
				3.9509270191192627,
				1.6060576438903809
			],
			"min":[
				-1.6060562133789062,
				2.7832319736480713,
				-1.6060587167739868
			],
			"type":"VEC3"
		},
		{
			"bufferView":21,
			"componentType":5126,
			"count":1064,
			"type":"VEC3"
		},
		{
			"bufferView":22,
			"componentType":5126,
			"count":1064,
			"type":"VEC2"
		},
		{
			"bufferView":23,
			"componentType":5123,
			"count":2502,
			"type":"SCALAR"
		},
		{
			"bufferView":24,
			"componentType":5126,
			"count":38,
			"max":[
				-0.9542859792709351,
				1.6001622676849365,
				1.0362257957458496
			],
			"min":[
				-1.4087014198303223,
				-1.3276784420013428,
				-0.8650225400924683
			],
			"type":"VEC3"
		},
		{
			"bufferView":25,
			"componentType":5126,
			"count":38,
			"type":"VEC3"
		},
		{
			"bufferView":26,
			"componentType":5126,
			"count":38,
			"type":"VEC2"
		},
		{
			"bufferView":27,
			"componentType":5123,
			"count":108,
			"type":"SCALAR"
		}
	],
	"bufferViews":[
		{
			"buffer":0,
			"byteLength":17424,
			"byteOffset":0,
			"target":34962
		},
		{
			"buffer":0,
			"byteLength":17424,
			"byteOffset":17424,
			"target":34962
		},
		{
			"buffer":0,
			"byteLength":11616,
			"byteOffset":34848,
			"target":34962
		},
		{
			"buffer":0,
			"byteLength":14352,
			"byteOffset":46464,
			"target":34963
		},
		{
			"buffer":0,
			"byteLength":8832,
			"byteOffset":60816,
			"target":34962
		},
		{
			"buffer":0,
			"byteLength":8832,
			"byteOffset":69648,
			"target":34962
		},
		{
			"buffer":0,
			"byteLength":5888,
			"byteOffset":78480,
			"target":34962
		},
		{
			"buffer":0,
			"byteLength":7860,
			"byteOffset":84368,
			"target":34963
		},
		{
			"buffer":0,
			"byteLength":43728,
			"byteOffset":92228,
			"target":34962
		},
		{
			"buffer":0,
			"byteLength":43728,
			"byteOffset":135956,
			"target":34962
		},
		{
			"buffer":0,
			"byteLength":29152,
			"byteOffset":179684,
			"target":34962
		},
		{
			"buffer":0,
			"byteLength":21396,
			"byteOffset":208836,
			"target":34963
		},
		{
			"buffer":0,
			"byteLength":3480,
			"byteOffset":230232,
			"target":34962
		},
		{
			"buffer":0,
			"byteLength":3480,
			"byteOffset":233712,
			"target":34962
		},
		{
			"buffer":0,
			"byteLength":2320,
			"byteOffset":237192,
			"target":34962
		},
		{
			"buffer":0,
			"byteLength":2688,
			"byteOffset":239512,
			"target":34963
		},
		{
			"buffer":0,
			"byteLength":26568,
			"byteOffset":242200,
			"target":34962
		},
		{
			"buffer":0,
			"byteLength":26568,
			"byteOffset":268768,
			"target":34962
		},
		{
			"buffer":0,
			"byteLength":17712,
			"byteOffset":295336,
			"target":34962
		},
		{
			"buffer":0,
			"byteLength":21672,
			"byteOffset":313048,
			"target":34963
		},
		{
			"buffer":0,
			"byteLength":12768,
			"byteOffset":334720,
			"target":34962
		},
		{
			"buffer":0,
			"byteLength":12768,
			"byteOffset":347488,
			"target":34962
		},
		{
			"buffer":0,
			"byteLength":8512,
			"byteOffset":360256,
			"target":34962
		},
		{
			"buffer":0,
			"byteLength":5004,
			"byteOffset":368768,
			"target":34963
		},
		{
			"buffer":0,
			"byteLength":456,
			"byteOffset":373772,
			"target":34962
		},
		{
			"buffer":0,
			"byteLength":456,
			"byteOffset":374228,
			"target":34962
		},
		{
			"buffer":0,
			"byteLength":304,
			"byteOffset":374684,
			"target":34962
		},
		{
			"buffer":0,
			"byteLength":216,
			"byteOffset":374988,
			"target":34963
		}
	],
	"samplers":[
		{
			"magFilter":9729,
			"minFilter":9987,
			"wrapS":33071,
			"wrapT":33071
		}
	],
	"buffers":[
		{
			"byteLength":375204,
			"uri":"marker-vial-scene_gltf.bin"
		}
	]
}
