{
	"asset":{
		"generator":"Khronos glTF Blender I/O v4.5.47",
		"version":"2.0"
	},
	"scene":0,
	"scenes":[
		{
			"name":"Scene",
			"nodes":[
				7
			]
		}
	],
	"nodes":[
		{
			"mesh":0,
			"name":"Cap_Pencil_0"
		},
		{
			"children":[
				0
			],
			"name":"Object_6",
			"translation":[
				-3.610866770031862e-06,
				-2.8014183044433594e-06,
				-7.3850812911987305
			]
		},
		{
			"children":[
				1
			],
			"name":"Cap",
			"rotation":[
				-0.7071068286895752,
				0,
				0,
				0.7071067094802856
			],
			"translation":[
				4.003276444564108e-06,
				9.45376968383789,
				-3.4570693969726562e-06
			]
		},
		{
			"mesh":1,
			"name":"Pen_Pencil_0",
			"translation":[
				3.939710040867794e-06,
				0,
				3.440638542175293
			]
		},
		{
			"children":[
				3
			],
			"name":"Pen",
			"rotation":[
				-0.7071068286895752,
				0,
				0,
				0.7071067094802856
			]
		},
		{
			"children":[
				2,
				4
			],
			"name":"RootNode"
		},
		{
			"children":[
				5
			],
			"name":"2e84430255284155aca76a63ada53576.fbx",
			"rotation":[
				0.70710688829422,
				0,
				0,
				0.7071066498756409
			]
		},
		{
			"children":[
				6
			],
			"name":"Sketchfab_model",
			"rotation":[
				-0.8320792317390442,
				0.16622744500637054,
				0.34395697712898254,
				0.40212705731391907
			],
			"translation":[
				2.2907052040100098,
				1.1301676034927368,
				2.297309160232544
			]
		}
	],
	"materials":[
		{
			"doubleSided":true,
			"name":"Pencil",
			"normalTexture":{
				"index":0
			},
			"pbrMetallicRoughness":{
				"baseColorTexture":{
					"index":1
				},
				"metallicRoughnessTexture":{
					"index":2
				},
				"roughnessFactor":0
			}
		}
	],
	"meshes":[
		{
			"name":"Cap_Pencil_0",
			"primitives":[
				{
					"attributes":{
						"POSITION":0,
						"NORMAL":1,
						"TEXCOORD_0":2
					},
					"indices":3,
					"material":0
				}
			]
		},
		{
			"name":"Pen_Pencil_0",
			"primitives":[
				{
					"attributes":{
						"POSITION":4,
						"NORMAL":5,
						"TEXCOORD_0":6
					},
					"indices":7,
					"material":0
				}
			]
		}
	],
	"textures":[
		{
			"sampler":0,
			"source":0
		},
		{
			"sampler":0,
			"source":1
		},
		{
			"sampler":0,
			"source":2
		}
	],
	"images":[
		{
			"mimeType":"image/png",
			"name":"Pencil_normal",
			"uri":"textures/Pencil_normal.png"
		},
		{
			"mimeType":"image/png",
			"name":"Pencil_baseColor",
			"uri":"textures/Pencil_baseColor.png"
		},
		{
			"mimeType":"image/png",
			"name":"Pencil_metallicRoughness",
			"uri":"textures/Pencil_metallicRoughness.png"
		}
	],
	"accessors":[
		{
			"bufferView":0,
			"componentType":5126,
			"count":223,
			"max":[
				0.6851544976234436,
				0.6747446060180664,
				8.494673728942871
			],
			"min":[
				-0.6851467490196228,
				-0.6747387647628784,
				6.275489330291748
			],
			"type":"VEC3"
		},
		{
			"bufferView":1,
			"componentType":5126,
			"count":223,
			"type":"VEC3"
		},
		{
			"bufferView":2,
			"componentType":5126,
			"count":223,
			"type":"VEC2"
		},
		{
			"bufferView":3,
			"componentType":5123,
			"count":540,
			"type":"SCALAR"
		},
		{
			"bufferView":4,
			"componentType":5126,
			"count":471,
			"max":[
				0.6757971048355103,
				0.6655329465866089,
				4.50177001953125
			],
			"min":[
				-0.6757969856262207,
				-0.6655275225639343,
				-3.561105489730835
			],
			"type":"VEC3"
		},
		{
			"bufferView":5,
			"componentType":5126,
			"count":471,
			"type":"VEC3"
		},
		{
			"bufferView":6,
			"componentType":5126,
			"count":471,
			"type":"VEC2"
		},
		{
			"bufferView":7,
			"componentType":5123,
			"count":1404,
			"type":"SCALAR"
		}
	],
	"bufferViews":[
		{
			"buffer":0,
			"byteLength":2676,
			"byteOffset":0,
			"target":34962
		},
		{
			"buffer":0,
			"byteLength":2676,
			"byteOffset":2676,
			"target":34962
		},
		{
			"buffer":0,
			"byteLength":1784,
			"byteOffset":5352,
			"target":34962
		},
		{
			"buffer":0,
			"byteLength":1080,
			"byteOffset":7136,
			"target":34963
		},
		{
			"buffer":0,
			"byteLength":5652,
			"byteOffset":8216,
			"target":34962
		},
		{
			"buffer":0,
			"byteLength":5652,
			"byteOffset":13868,
			"target":34962
		},
		{
			"buffer":0,
			"byteLength":3768,
			"byteOffset":19520,
			"target":34962
		},
		{
			"buffer":0,
			"byteLength":2808,
			"byteOffset":23288,
			"target":34963
		}
	],
	"samplers":[
		{
			"magFilter":9729,
			"minFilter":9987
		}
	],
	"buffers":[
		{
			"byteLength":26096,
			"uri":"Untitled.bin"
		}
	]
}
