{
	"asset":{
		"generator":"Khronos glTF Blender I/O v4.5.47",
		"version":"2.0"
	},
	"extensionsUsed":[
		"KHR_materials_specular",
		"KHR_materials_anisotropy",
		"KHR_materials_ior"
	],
	"scene":0,
	"scenes":[
		{
			"name":"Scene",
			"nodes":[
				4
			]
		}
	],
	"nodes":[
		{
			"mesh":0,
			"name":"Cylinder.002",
			"scale":[
				1.0172878503799438,
				1.0172878503799438,
				1.0172878503799438
			],
			"translation":[
				-14.441803932189941,
				0,
				0.001712411642074585
			]
		},
		{
			"children":[
				0
			],
			"name":"Cap",
			"translation":[
				14.441800117492676,
				0,
				-0.002876780927181244
			]
		},
		{
			"mesh":1,
			"name":"Cylinder.003",
			"translation":[
				-3.814697265625e-06,
				0,
				0
			]
		},
		{
			"children":[
				2
			],
			"name":"Marker"
		},
		{
			"children":[
				1,
				3
			],
			"name":"RootNode",
			"translation":[
				8.145401954650879,
				0.6363840103149414,
				0.07374024391174316
			]
		}
	],
	"materials":[
		{
			"doubleSided":true,
			"name":"Material.001"
		},
		{
			"doubleSided":true,
			"name":"Material.002",
			"pbrMetallicRoughness":{
				"baseColorFactor":[
					0.5175853371620178,
					0.5175853371620178,
					0.5175853371620178,
					1
				],
				"roughnessFactor":0.18809521198272705
			}
		},
		{
			"doubleSided":true,
			"extensions":{
				"KHR_materials_specular":{
					"specularColorFactor":[
						1.7142856121063232,
						1.7142856121063232,
						1.7142856121063232
					]
				},
				"KHR_materials_anisotropy":{
					"anisotropyStrength":0.0952381044626236
				},
				"KHR_materials_ior":{
					"ior":1.2400000095367432
				}
			},
			"name":"Material",
			"pbrMetallicRoughness":{
				"baseColorTexture":{
					"index":0
				},
				"metallicFactor":0.11818182468414307,
				"roughnessFactor":0.8073593974113464
			}
		},
		{
			"doubleSided":true,
			"name":"Material.004",
			"pbrMetallicRoughness":{
				"baseColorFactor":[
					0.800000011920929,
					0.800000011920929,
					0.800000011920929,
					1
				],
				"metallicFactor":0,
				"roughnessFactor":0.7222222089767456
			}
		}
	],
	"meshes":[
		{
			"name":"Cylinder.001",
			"primitives":[
				{
					"attributes":{
						"POSITION":0,
						"NORMAL":1,
						"TEXCOORD_0":2
					},
					"indices":3,
					"material":0
				}
			]
		},
		{
			"name":"Cylinder.004",
			"primitives":[
				{
					"attributes":{
						"POSITION":4,
						"NORMAL":5,
						"TEXCOORD_0":6
					},
					"indices":7,
					"material":1
				},
				{
					"attributes":{
						"POSITION":8,
						"NORMAL":9,
						"TEXCOORD_0":10
					},
					"indices":11,
					"material":2
				},
				{
					"attributes":{
						"POSITION":12,
						"NORMAL":13,
						"TEXCOORD_0":14
					},
					"indices":15,
					"material":3
				}
			]
		}
	],
	"textures":[
		{
			"sampler":0,
			"source":0
		}
	],
	"images":[
		{
			"mimeType":"image/png",
			"name":"Untitled",
			"uri":"textures/Untitled.png"
		}
	],
	"accessors":[
		{
			"bufferView":0,
			"componentType":5126,
			"count":1452,
			"max":[
				12.351885795593262,
				1.2452062368392944,
				1.5069580078125
			],
			"min":[
				7.442062854766846,
				-1.273190975189209,
				-1.8988995552062988
			],
			"type":"VEC3"
		},
		{
			"bufferView":1,
			"componentType":5126,
			"count":1452,
			"type":"VEC3"
		},
		{
			"bufferView":2,
			"componentType":5126,
			"count":1452,
			"type":"VEC2"
		},
		{
			"bufferView":3,
			"componentType":5123,
			"count":7176,
			"type":"SCALAR"
		},
		{
			"bufferView":4,
			"componentType":5126,
			"count":736,
			"max":[
				11.918845176696777,
				0.08547164499759674,
				0.09126550704240799
			],
			"min":[
				11.360508918762207,
				-0.08547092974185944,
				-0.09127029031515121
			],
			"type":"VEC3"
		},
		{
			"bufferView":5,
			"componentType":5126,
			"count":736,
			"type":"VEC3"
		},
		{
			"bufferView":6,
			"componentType":5126,
			"count":736,
			"type":"VEC2"
		},
		{
			"bufferView":7,
			"componentType":5123,
			"count":3930,
			"type":"SCALAR"
		},
		{
			"bufferView":8,
			"componentType":5126,
			"count":3562,
			"max":[
				11.360511779785156,
				1.9079811573028564,
				2.2867507934570312
			],
			"min":[
				-11.150167465209961,
				-1.9079807996749878,
				-2.2867510318756104
			],
			"type":"VEC3"
		},
		{
			"bufferView":9,
			"componentType":5126,
			"count":3562,
			"type":"VEC3"
		},
		{
			"bufferView":10,
			"componentType":5126,
			"count":3562,
			"type":"VEC2"
		},
		{
			"bufferView":11,
			"componentType":5123,
			"count":10698,
			"type":"SCALAR"
		},
		{
			"bufferView":12,
			"componentType":5126,
			"count":290,
			"max":[
				11.360511779785156,
				1.2053741216659546,
				1.4027767181396484
			],
			"min":[
				8.136285781860352,
				-1.2053735256195068,
				-1.4027782678604126
			],
			"type":"VEC3"
		},
		{
			"bufferView":13,
			"componentType":5126,
			"count":290,
			"type":"VEC3"
		},
		{
			"bufferView":14,
			"componentType":5126,
			"count":290,
			"type":"VEC2"
		},
		{
			"bufferView":15,
			"componentType":5123,
			"count":1344,
			"type":"SCALAR"
		}
	],
	"bufferViews":[
		{
			"buffer":0,
			"byteLength":17424,
			"byteOffset":0,
			"target":34962
		},
		{
			"buffer":0,
			"byteLength":17424,
			"byteOffset":17424,
			"target":34962
		},
		{
			"buffer":0,
			"byteLength":11616,
			"byteOffset":34848,
			"target":34962
		},
		{
			"buffer":0,
			"byteLength":14352,
			"byteOffset":46464,
			"target":34963
		},
		{
			"buffer":0,
			"byteLength":8832,
			"byteOffset":60816,
			"target":34962
		},
		{
			"buffer":0,
			"byteLength":8832,
			"byteOffset":69648,
			"target":34962
		},
		{
			"buffer":0,
			"byteLength":5888,
			"byteOffset":78480,
			"target":34962
		},
		{
			"buffer":0,
			"byteLength":7860,
			"byteOffset":84368,
			"target":34963
		},
		{
			"buffer":0,
			"byteLength":42744,
			"byteOffset":92228,
			"target":34962
		},
		{
			"buffer":0,
			"byteLength":42744,
			"byteOffset":134972,
			"target":34962
		},
		{
			"buffer":0,
			"byteLength":28496,
			"byteOffset":177716,
			"target":34962
		},
		{
			"buffer":0,
			"byteLength":21396,
			"byteOffset":206212,
			"target":34963
		},
		{
			"buffer":0,
			"byteLength":3480,
			"byteOffset":227608,
			"target":34962
		},
		{
			"buffer":0,
			"byteLength":3480,
			"byteOffset":231088,
			"target":34962
		},
		{
			"buffer":0,
			"byteLength":2320,
			"byteOffset":234568,
			"target":34962
		},
		{
			"buffer":0,
			"byteLength":2688,
			"byteOffset":236888,
			"target":34963
		}
	],
	"samplers":[
		{
			"magFilter":9729,
			"minFilter":9987,
			"wrapS":33071,
			"wrapT":33071
		}
	],
	"buffers":[
		{
			"byteLength":239576,
			"uri":"markercustom.bin"
		}
	]
}
